{
	"patcher" : 	{
		"fileversion" : 1,
		"appversion" : 		{
			"major" : 6,
			"minor" : 1,
			"revision" : 9,
			"architecture" : "x86"
		}
,
		"rect" : [ 653.0, 791.0, 681.0, 487.0 ],
		"bglocked" : 0,
		"openinpresentation" : 0,
		"default_fontsize" : 12.0,
		"default_fontface" : 0,
		"default_fontname" : "Arial",
		"gridonopen" : 0,
		"gridsize" : [ 15.0, 15.0 ],
		"gridsnaponopen" : 0,
		"statusbarvisible" : 2,
		"toolbarvisible" : 0,
		"boxanimatetime" : 200,
		"imprint" : 0,
		"enablehscroll" : 1,
		"enablevscroll" : 1,
		"devicewidth" : 0.0,
		"description" : "",
		"digest" : "",
		"tags" : "",
		"boxes" : [ 			{
				"box" : 				{
					"fontname" : "Arial",
					"fontsize" : 14.0,
					"frgb" : 0.0,
					"id" : "obj-76",
					"maxclass" : "comment",
					"numinlets" : 1,
					"numoutlets" : 0,
					"patching_rect" : [ 104.5, 44.0, 128.0, 22.0 ],
					"text" : "32-BIT ONLY",
					"textcolor" : [ 0.890196, 0.007843, 0.2, 1.0 ]
				}

			}
, 			{
				"box" : 				{
					"fontname" : "Arial",
					"fontsize" : 9.0,
					"frgb" : 0.0,
					"id" : "obj-57",
					"linecount" : 2,
					"maxclass" : "comment",
					"numinlets" : 1,
					"numoutlets" : 0,
					"patching_rect" : [ 429.0, 335.0, 244.0, 27.0 ],
					"text" : "[int int]: sets the input volume (0 -127) and duration (msec) of the ramp to that volume"
				}

			}
, 			{
				"box" : 				{
					"fontname" : "Arial",
					"fontsize" : 9.0,
					"frgb" : 0.0,
					"id" : "obj-54",
					"linecount" : 2,
					"maxclass" : "comment",
					"numinlets" : 1,
					"numoutlets" : 0,
					"patching_rect" : [ 428.0, 365.0, 229.0, 27.0 ],
					"text" : "[int]: sets the duration (in msec) of the random movement (i.e. larger values == slower movement)"
				}

			}
, 			{
				"box" : 				{
					"fontname" : "Arial",
					"fontsize" : 9.0,
					"frgb" : 0.0,
					"id" : "obj-55",
					"maxclass" : "comment",
					"numinlets" : 1,
					"numoutlets" : 0,
					"patching_rect" : [ 345.0, 366.0, 84.0, 17.0 ],
					"text" : "rand1Speed"
				}

			}
, 			{
				"box" : 				{
					"fontname" : "Futura Medium",
					"fontsize" : 14.0,
					"frgb" : 0.0,
					"id" : "obj-1",
					"maxclass" : "comment",
					"numinlets" : 1,
					"numoutlets" : 0,
					"patching_rect" : [ 10.0, 193.0, 317.0, 25.0 ],
					"text" : "SLIDER CONTROLS"
				}

			}
, 			{
				"box" : 				{
					"fontname" : "Arial",
					"fontsize" : 9.0,
					"frgb" : 0.0,
					"id" : "obj-2",
					"maxclass" : "comment",
					"numinlets" : 1,
					"numoutlets" : 0,
					"patching_rect" : [ 10.0, 214.0, 315.0, 17.0 ],
					"text" : "Volume Slider controls the strength of the incoming audio signal"
				}

			}
, 			{
				"box" : 				{
					"fontname" : "Arial",
					"fontsize" : 9.0,
					"hidden" : 1,
					"id" : "obj-3",
					"maxclass" : "message",
					"numinlets" : 2,
					"numoutlets" : 1,
					"outlettype" : [ "" ],
					"patching_rect" : [ 62.0, 398.0, 37.0, 15.0 ],
					"text" : "50 50"
				}

			}
, 			{
				"box" : 				{
					"fontname" : "Arial",
					"fontsize" : 9.0,
					"hidden" : 1,
					"id" : "obj-4",
					"maxclass" : "newobj",
					"numinlets" : 1,
					"numoutlets" : 1,
					"outlettype" : [ "bang" ],
					"patching_rect" : [ 10.0, 397.0, 48.0, 17.0 ],
					"text" : "loadbang"
				}

			}
, 			{
				"box" : 				{
					"bkgndpict" : "panBackground2.pct",
					"bkgndsize" : 1,
					"bottommargin" : 2,
					"id" : "obj-5",
					"imagemask" : 1,
					"knobpict" : "panKnob.pct",
					"leftmargin" : 2,
					"maxclass" : "pictslider",
					"numinlets" : 2,
					"numoutlets" : 2,
					"outlettype" : [ "int", "int" ],
					"parameter_enable" : 0,
					"patching_rect" : [ 11.0, 138.0, 50.0, 50.0 ],
					"rightmargin" : 2,
					"rightvalue" : 100,
					"topmargin" : 2,
					"topvalue" : 100
				}

			}
, 			{
				"box" : 				{
					"fontname" : "Arial",
					"fontsize" : 9.0,
					"frgb" : 0.0,
					"id" : "obj-6",
					"linecount" : 3,
					"maxclass" : "comment",
					"numinlets" : 1,
					"numoutlets" : 0,
					"patching_rect" : [ 346.0, 152.0, 324.0, 37.0 ],
					"text" : "Each of the 4 panners are controlled by their pan number (pan1, pan2, pan3, pan4) -- for each of the pan1 receives below there are corresponding pan2, pan3, and pan4 variables"
				}

			}
, 			{
				"box" : 				{
					"fontname" : "Arial",
					"fontsize" : 9.0,
					"frgb" : 0.0,
					"id" : "obj-8",
					"maxclass" : "comment",
					"numinlets" : 1,
					"numoutlets" : 0,
					"patching_rect" : [ 345.0, 236.0, 84.0, 17.0 ],
					"text" : "pan1LocationL"
				}

			}
, 			{
				"box" : 				{
					"fontname" : "Arial",
					"fontsize" : 9.0,
					"frgb" : 0.0,
					"id" : "obj-9",
					"linecount" : 3,
					"maxclass" : "comment",
					"numinlets" : 1,
					"numoutlets" : 0,
					"patching_rect" : [ 10.0, 305.0, 311.0, 37.0 ],
					"text" : "Cycle Counter-clockwise button causes the sound to move from the centre-middle of the space around the outside in counter-clockwise direction"
				}

			}
, 			{
				"box" : 				{
					"fontname" : "Arial",
					"fontsize" : 9.0,
					"frgb" : 0.0,
					"id" : "obj-10",
					"linecount" : 2,
					"maxclass" : "comment",
					"numinlets" : 1,
					"numoutlets" : 0,
					"patching_rect" : [ 10.0, 280.0, 315.0, 27.0 ],
					"text" : "Cycle Clockwise button causes the sound to move from the centre-middle of the space around the outside in clockwise direction"
				}

			}
, 			{
				"box" : 				{
					"fontname" : "Arial",
					"fontsize" : 9.0,
					"frgb" : 0.0,
					"id" : "obj-11",
					"maxclass" : "comment",
					"numinlets" : 1,
					"numoutlets" : 0,
					"patching_rect" : [ 345.0, 333.0, 84.0, 17.0 ],
					"text" : "pan1VolL"
				}

			}
, 			{
				"box" : 				{
					"fontname" : "Arial",
					"fontsize" : 9.0,
					"frgb" : 0.0,
					"id" : "obj-12",
					"maxclass" : "comment",
					"numinlets" : 1,
					"numoutlets" : 0,
					"patching_rect" : [ 345.0, 308.0, 84.0, 17.0 ],
					"text" : "pan1Vol"
				}

			}
, 			{
				"box" : 				{
					"fontname" : "Arial",
					"fontsize" : 9.0,
					"frgb" : 0.0,
					"id" : "obj-13",
					"maxclass" : "comment",
					"numinlets" : 1,
					"numoutlets" : 0,
					"patching_rect" : [ 428.0, 308.0, 245.0, 17.0 ],
					"text" : "int: sets the input volume (0 - 127)"
				}

			}
, 			{
				"box" : 				{
					"fontname" : "Arial",
					"fontsize" : 9.0,
					"hidden" : 1,
					"id" : "obj-14",
					"maxclass" : "message",
					"numinlets" : 2,
					"numoutlets" : 1,
					"outlettype" : [ "" ],
					"patching_rect" : [ 615.0, 410.0, 95.0, 15.0 ],
					"text" : "window flags grow"
				}

			}
, 			{
				"box" : 				{
					"fontname" : "Arial",
					"fontsize" : 9.0,
					"hidden" : 1,
					"id" : "obj-15",
					"maxclass" : "message",
					"numinlets" : 2,
					"numoutlets" : 1,
					"outlettype" : [ "" ],
					"patching_rect" : [ 615.0, 392.0, 105.0, 15.0 ],
					"text" : "window flags nogrow"
				}

			}
, 			{
				"box" : 				{
					"fontname" : "Arial",
					"fontsize" : 9.0,
					"hidden" : 1,
					"id" : "obj-16",
					"maxclass" : "newobj",
					"numinlets" : 1,
					"numoutlets" : 2,
					"outlettype" : [ "", "" ],
					"patching_rect" : [ 617.0, 447.0, 60.0, 17.0 ],
					"save" : [ "#N", "thispatcher", ";", "#Q", "window", "flags", "nogrow", "close", "zoom", "nofloat", "menu", "minimize", ";", "#Q", "window", "constrain", 50, 50, 32768, 32768, ";", "#Q", "window", "size", 653, 791, 1334, 1278, ";", "#Q", "window", "title", ";", "#Q", "window", "exec", ";", "#Q", "savewindow", 1, ";", "#Q", "end", ";" ],
					"text" : "thispatcher"
				}

			}
, 			{
				"box" : 				{
					"fontname" : "Arial",
					"fontsize" : 9.0,
					"hidden" : 1,
					"id" : "obj-17",
					"maxclass" : "message",
					"numinlets" : 2,
					"numoutlets" : 1,
					"outlettype" : [ "" ],
					"patching_rect" : [ 617.0, 429.0, 65.0, 15.0 ],
					"text" : "window exec"
				}

			}
, 			{
				"box" : 				{
					"fontname" : "Arial",
					"fontsize" : 9.0,
					"frgb" : 0.0,
					"id" : "obj-18",
					"maxclass" : "comment",
					"numinlets" : 1,
					"numoutlets" : 0,
					"patching_rect" : [ 345.0, 272.0, 84.0, 17.0 ],
					"text" : "pan1Rotate"
				}

			}
, 			{
				"box" : 				{
					"fontname" : "Arial",
					"fontsize" : 9.0,
					"frgb" : 0.0,
					"id" : "obj-19",
					"linecount" : 3,
					"maxclass" : "comment",
					"numinlets" : 1,
					"numoutlets" : 0,
					"patching_rect" : [ 428.0, 272.0, 244.0, 37.0 ],
					"text" : "[int int int] rotates the sound in a circle a specified number of times in clockwise (0) or counter-clockwise (1) direction in a set duration (in msec)"
				}

			}
, 			{
				"box" : 				{
					"fontname" : "Futura Medium",
					"fontsize" : 14.0,
					"frgb" : 0.0,
					"id" : "obj-20",
					"maxclass" : "comment",
					"numinlets" : 1,
					"numoutlets" : 0,
					"patching_rect" : [ 10.0, 348.0, 317.0, 25.0 ],
					"text" : "NUMBER BOXES"
				}

			}
, 			{
				"box" : 				{
					"fontname" : "Arial",
					"fontsize" : 9.0,
					"frgb" : 0.0,
					"id" : "obj-21",
					"linecount" : 2,
					"maxclass" : "comment",
					"numinlets" : 1,
					"numoutlets" : 0,
					"patching_rect" : [ 10.0, 392.0, 315.0, 27.0 ],
					"text" : "The F<->B box adjust the Front-Back position of the sound (0 - 1 range where 0.5 is the centre)"
				}

			}
, 			{
				"box" : 				{
					"fontname" : "Arial",
					"fontsize" : 9.0,
					"frgb" : 0.0,
					"id" : "obj-22",
					"linecount" : 2,
					"maxclass" : "comment",
					"numinlets" : 1,
					"numoutlets" : 0,
					"patching_rect" : [ 10.0, 369.0, 316.0, 27.0 ],
					"text" : "The L<->R box adjust the Left-Right position of the sound (0 - 1 range where 0.5 is the centre)"
				}

			}
, 			{
				"box" : 				{
					"fontname" : "Arial",
					"fontsize" : 9.0,
					"frgb" : 0.0,
					"id" : "obj-23",
					"maxclass" : "comment",
					"numinlets" : 1,
					"numoutlets" : 0,
					"patching_rect" : [ 344.0, 56.0, 314.0, 17.0 ],
					"text" : "On / Off (0/1)"
				}

			}
, 			{
				"box" : 				{
					"fontname" : "Arial",
					"fontsize" : 9.0,
					"frgb" : 0.0,
					"id" : "obj-24",
					"maxclass" : "comment",
					"numinlets" : 1,
					"numoutlets" : 0,
					"patching_rect" : [ 344.0, 44.0, 314.0, 17.0 ],
					"text" : "Pan-4 Data [float float] (0-1)(0-1) (4 X)"
				}

			}
, 			{
				"box" : 				{
					"fontname" : "Arial",
					"fontsize" : 9.0,
					"frgb" : 0.0,
					"id" : "obj-25",
					"maxclass" : "comment",
					"numinlets" : 1,
					"numoutlets" : 0,
					"patching_rect" : [ 344.0, 32.0, 314.0, 17.0 ],
					"text" : "Audio Signal (4 X)"
				}

			}
, 			{
				"box" : 				{
					"fontname" : "Arial",
					"fontsize" : 9.0,
					"frgb" : 0.0,
					"id" : "obj-26",
					"maxclass" : "comment",
					"numinlets" : 1,
					"numoutlets" : 0,
					"patching_rect" : [ 345.0, 213.0, 84.0, 17.0 ],
					"text" : "pan1Location"
				}

			}
, 			{
				"box" : 				{
					"fontname" : "Arial",
					"fontsize" : 9.0,
					"frgb" : 0.0,
					"id" : "obj-27",
					"maxclass" : "comment",
					"numinlets" : 1,
					"numoutlets" : 0,
					"patching_rect" : [ 345.0, 189.0, 84.0, 17.0 ],
					"text" : "pan1Rand"
				}

			}
, 			{
				"box" : 				{
					"fontname" : "Arial",
					"fontsize" : 9.0,
					"frgb" : 0.0,
					"id" : "obj-28",
					"linecount" : 3,
					"maxclass" : "comment",
					"numinlets" : 1,
					"numoutlets" : 0,
					"patching_rect" : [ 428.0, 236.0, 244.0, 37.0 ],
					"text" : "[float float int]: set left-right (0 - 1) and front-back (0 - 1) position of the sound and the duration (in msec) it takes to reach these values"
				}

			}
, 			{
				"box" : 				{
					"fontname" : "Futura Medium",
					"fontsize" : 14.0,
					"frgb" : 0.0,
					"id" : "obj-29",
					"maxclass" : "comment",
					"numinlets" : 1,
					"numoutlets" : 0,
					"patching_rect" : [ 10.0, 234.0, 317.0, 25.0 ],
					"text" : "BUTTON CONTROLS"
				}

			}
, 			{
				"box" : 				{
					"fontname" : "Arial",
					"fontsize" : 9.0,
					"frgb" : 0.0,
					"id" : "obj-30",
					"maxclass" : "comment",
					"numinlets" : 1,
					"numoutlets" : 0,
					"patching_rect" : [ 10.0, 267.0, 315.0, 17.0 ],
					"text" : "RAND button causes continuously changing panning location"
				}

			}
, 			{
				"box" : 				{
					"fontname" : "Arial",
					"fontsize" : 9.0,
					"frgb" : 0.0,
					"id" : "obj-31",
					"maxclass" : "comment",
					"numinlets" : 1,
					"numoutlets" : 0,
					"patching_rect" : [ 10.0, 255.0, 315.0, 17.0 ],
					"text" : "On/Off button turns the module on or off"
				}

			}
, 			{
				"box" : 				{
					"fontname" : "Arial",
					"fontsize" : 9.0,
					"frgb" : 0.0,
					"id" : "obj-32",
					"maxclass" : "comment",
					"numinlets" : 1,
					"numoutlets" : 0,
					"patching_rect" : [ 40.0, 439.0, 284.0, 17.0 ],
					"text" : "Written by Keith Hamel 2004-2005."
				}

			}
, 			{
				"box" : 				{
					"fontname" : "Arial",
					"fontsize" : 9.0,
					"frgb" : 0.0,
					"id" : "obj-33",
					"linecount" : 2,
					"maxclass" : "comment",
					"numinlets" : 1,
					"numoutlets" : 0,
					"patching_rect" : [ 428.0, 189.0, 244.0, 27.0 ],
					"text" : "int: turns random movement on (1) or off (0) . Duration of the ramp is 100 msec"
				}

			}
, 			{
				"box" : 				{
					"fontname" : "Arial",
					"fontsize" : 9.0,
					"frgb" : 0.0,
					"id" : "obj-34",
					"linecount" : 2,
					"maxclass" : "comment",
					"numinlets" : 1,
					"numoutlets" : 0,
					"patching_rect" : [ 428.0, 213.0, 244.0, 27.0 ],
					"text" : "[float float]: set left-right (0 - 1) and front-back (0 - 1) position of the sound. [0.5 0.5] is the centre."
				}

			}
, 			{
				"box" : 				{
					"fontname" : "Arial",
					"fontsize" : 9.0,
					"frgb" : 0.0,
					"id" : "obj-35",
					"maxclass" : "comment",
					"numinlets" : 1,
					"numoutlets" : 0,
					"patching_rect" : [ 428.0, 136.0, 244.0, 17.0 ],
					"text" : "toggle: turns the module on or off (0 / 1)"
				}

			}
, 			{
				"box" : 				{
					"fontname" : "Futura Medium",
					"fontsize" : 14.0,
					"frgb" : 0.0,
					"id" : "obj-36",
					"maxclass" : "comment",
					"numinlets" : 1,
					"numoutlets" : 0,
					"patching_rect" : [ 10.0, 117.0, 315.0, 25.0 ],
					"text" : "MOUSE CONTROLS"
				}

			}
, 			{
				"box" : 				{
					"fontname" : "Futura Medium",
					"fontsize" : 14.0,
					"frgb" : 0.0,
					"id" : "obj-37",
					"maxclass" : "comment",
					"numinlets" : 1,
					"numoutlets" : 0,
					"patching_rect" : [ 345.0, 114.0, 319.0, 25.0 ],
					"text" : "RECEIVES (MESSAGES)"
				}

			}
, 			{
				"box" : 				{
					"fontname" : "Futura Medium",
					"fontsize" : 14.0,
					"frgb" : 0.0,
					"id" : "obj-38",
					"maxclass" : "comment",
					"numinlets" : 1,
					"numoutlets" : 0,
					"patching_rect" : [ 347.0, 396.0, 242.0, 25.0 ],
					"text" : "MESSAGING EXAMPLES"
				}

			}
, 			{
				"box" : 				{
					"bgcolor" : [ 1.0, 0.741176, 0.611765, 1.0 ],
					"fontname" : "Arial",
					"fontsize" : 9.0,
					"id" : "obj-39",
					"linecount" : 5,
					"maxclass" : "message",
					"numinlets" : 2,
					"numoutlets" : 1,
					"outlettype" : [ "" ],
					"patching_rect" : [ 498.0, 419.0, 109.0, 55.0 ],
					"text" : ";\rpan4Rotate 4 0 6000;\rpan2Rotate 5 1 4500;\rpan1Rand 1;\rpan3Rand 1"
				}

			}
, 			{
				"box" : 				{
					"bgcolor" : [ 1.0, 0.741176, 0.611765, 1.0 ],
					"fontname" : "Arial",
					"fontsize" : 9.0,
					"id" : "obj-40",
					"linecount" : 5,
					"maxclass" : "message",
					"numinlets" : 2,
					"numoutlets" : 1,
					"outlettype" : [ "" ],
					"patching_rect" : [ 347.0, 419.0, 140.0, 55.0 ],
					"text" : ";\rmultiPan4OnOff 1;\rpan1LocationL 0.4 0.6 1000;\rpan3LocationL 0.2 0.2 1500;\rpan3VolL 80 2000;\r"
				}

			}
, 			{
				"box" : 				{
					"data" : [ 1952, "", "IBkSG0fBZn....PCIgDQRA...3A...fGHX....vNv3pn....DLmPIQEBHf.B7g.YHB..GbURDEDUHkXqVsGUSddG94KIbI.ARHDj6DfhgKN4hvXHhBHUcLamysgcv7bvoyU8ztZsc6rIbFXW6jVvJ1KmVasJLJmVIbwa.UpZBV4lJbHX.DDj6HzjfIP.x8u8G9ENHDP1N64bdO48xy6umume+9ky4k.+eB0We8t17UE91b4v9gL4Gx4RM0TMtR7Yr3M9vibD20zXi6vee8UmiYDWYojxanc0H7.cJ8ncc+1+KSqdZr8zVid.T3Jwml4IkVZoz+fW6Okwz28th8hFsyEefB9Z6dnphtmnK6xpQX4xFWfRclPK8NNx7uk4YNxANPS0bwxR94J7.C22t+AgkcdeLXZst6LGzk9YPXN59d59507ZqFgiM9jdKNd3y6wyGuuudCFr9123Zwb1BJnzxJ4KOnk3S27D1rr+Mrs+Q1P+PChya+Q82uU3e3Qi.XwIg04vf8bYoxjtRB+km+7Ook1jbybyM2ukvftWdMb4xahGONyVZroWJ+7eeiWnhKcKK53n1X781oU5glolAE1UqHYu7GkWZQfEG2QTgr876u4qF9pw4omd5OI9Mtow7zCOAO2cGZLPhO5D4c71uSCOSZedGelO6yGQxHC9RC2UGNSn0Hzvf.7YXCt2fciTR52vR9nCxNRm53FWRhJMqjvW+5WORFFL72cxQmrkFAMXhzHjISFwzpU6S4WopxyO+708LNNf.BXnid3idL5qKTSDj.2dfGAucdMXpGMHp8N2BdYkKuBOmC7cWIQanzRYNQ2s+dVascN4I+.vOI7vPLaJND8OKZTUkWLAEiNZrKIUC.DSLwHLiLNTZ2PsBsboYCNYK2FI4ev3d2pVLhhIQ7g7qOz32olksSkwrcjIiF+zcL2CpAzsBvfM1BuBd8JiH9jlynISn+gGNpkjpMiqboK0AcafQcVaZqtYzZP2DIBvNGQcszDjO5DDcMTuAlPBtciqUeeJW38546JJMMRpr.R8Zg5gjB8beA3RfgWajgsts5patUesUWUZwt4369aufvpWhiMiYUibmBZJ4IDFPGOdbTzC5.eS+cigGaDDHbLVEyY6atP98Kthfm59U8NFHMASDVAD4dfGgu4hcmGmzcyM2lvzry1gcLYZxIG3LgES0K.jDlLlYCyHuuZmYBnQiF75dtVr2suSnmu6ffksyGfgjJ0YUsW0WoQ9vAnR4bPI6fg+Iu2uvUWc8fAETPxA.lwnQs9F3Z0xyMWGY9xxxUuFXbLnKtfTkMm1bR1u.hnGUJ83.EeVZiPnRcPqyie..PjHQLT1zYKZlwdPryMmALN3BOieucxlkcY5me9Me2OKVrn8a+coeQF1Xi3mmiA.fb4n0olg7WlQAmNp1cDkW8PiMq2QsMGXG7K9WyKu2xdOT01aNcu2cm5znGxI3.tItu97Wff4cpYHQhjwWiGd7GEHPviLuGwxnIQokVJsTSMUiYmc1zBMzPI3wiGQ4k7EmoUkt7Gx6DYMl0OrpOxXCmK24lUKFSkQvXiG3wqey+7zCNP+DsRlwLVRWsYHTnP..TWc0QFRHgPXu81iWd2uR6sd2F2QG+HS+dwfcXKJePizUnRGj6cxHnMti7hX8gTjkLQ1YmMs5pqNxUyGzxhlEWalQusTIOU4RHanhOm7eexrHuSKRdmryN6EW1HVz3+cLXSWcC26j6sqx+3+AYfaNMxJaQAYqRZSRCMz.SKwWjHQLjJUp0V5rUr4hBD..MUc4dIqgRJd1w5MH18KBu9V8.YkU1XJlufuVYEhzRWLwDSznPgBMXoyV1Z7BDkr4h9Wb008MKiTwHaX1oTBUlrCb+o6ZDq0qX3u4ZR7NoTRIfMEWje+EEJb5EGfkq197bLYaWqbWIj29mQSsrMMq5owTFoAqi7WIienQ7pGZ+6aeNNiDEm5qpYKQEUrGu5pq1lmS7dFGwG.YPstP.L.0b9LYx7faKB9o76WuCgwlPKtRGOA8YhGlgAawhEey5..hZCQDlQlttqCm0mLaDdo+vOpSoe8BdnW3.XWKPu1.fX.nbgaPB.1K7qhqS18i.f7xuZDjUs+PH2ZjBHo3sjAaOVK422sJCR6p0znhi3kiK.3aNUqbQ+hZ9m64X9vwFd..VYRGjQyYvxGAlO+3.fPjHQVA.mIHHlR4X8fS8wESWOS+NAWtbuJ.1B.JB.bnxrb.vooFCXwZbG0WcDtwT6aa9ueSAVvln1sxd5o2Jnnj..xIwDSLK.TIIIoi7802Q0MfH7oWndeTnPQbzoSuS7zR3BM0QnFVt4hsWg5xzV4IGi5d5SpUK3Wfv1xNe+N6rygonvmR7DnbFTL4jkbr+79+tFp3z..vM2c2tUSylXPk6A.5axIcRTsU2LWmrmD.js0dWeBEubn3kyhtea.fLt3hNzhK574xfgUZobnkdfXAKbQgTATLdZpXWt3hKUB.RO8zy9kKWtiKRXwTyygJPJo1OAJdYPsVI04YPwcfEwaY6BaaQe0EZANlGOiSnDa.rz3kgExB.3oo6U0an+u.Ir3M9O.7J5HEj0o7sF.....IUjSD4pPfIH" ],
					"embed" : 1,
					"id" : "obj-41",
					"maxclass" : "fpic",
					"numinlets" : 1,
					"numoutlets" : 0,
					"patching_rect" : [ 8.0, 440.0, 32.0, 34.0 ]
				}

			}
, 			{
				"box" : 				{
					"fontname" : "Arial",
					"fontsize" : 9.0,
					"frgb" : 0.0,
					"id" : "obj-42",
					"linecount" : 4,
					"maxclass" : "comment",
					"numinlets" : 1,
					"numoutlets" : 0,
					"patching_rect" : [ 69.0, 136.0, 256.0, 47.0 ],
					"text" : "A mouse tracker with a graphic of the 4-channel space allows you click in order the position of the sound and to drag it around. It also displays any automated changes to the panning location"
				}

			}
, 			{
				"box" : 				{
					"fontname" : "Arial",
					"fontsize" : 9.0,
					"frgb" : 0.0,
					"id" : "obj-43",
					"linecount" : 5,
					"maxclass" : "comment",
					"numinlets" : 1,
					"numoutlets" : 0,
					"patching_rect" : [ 10.0, 61.0, 315.0, 57.0 ],
					"text" : "Receives 4 parallel audio inputs and allows the location of the sound for each of these inputs to be controlled in a 4-channel environment. You can position the sound using the mouse, have the sound move randomly about the space, or in a circular fashion. Controls are duplicated for each audio input"
				}

			}
, 			{
				"box" : 				{
					"comment" : "",
					"hidden" : 1,
					"id" : "obj-44",
					"maxclass" : "inlet",
					"numinlets" : 0,
					"numoutlets" : 1,
					"outlettype" : [ "" ],
					"patching_rect" : [ 488.0, 6.0, 14.0, 14.0 ]
				}

			}
, 			{
				"box" : 				{
					"fontname" : "Arial",
					"fontsize" : 9.0,
					"frgb" : 0.0,
					"id" : "obj-45",
					"maxclass" : "comment",
					"numinlets" : 1,
					"numoutlets" : 0,
					"patching_rect" : [ 344.0, 95.0, 316.0, 17.0 ],
					"text" : "4 Audio Signals for (LF, RF, LB, RB) speakers"
				}

			}
, 			{
				"box" : 				{
					"fontname" : "Futura Medium",
					"fontsize" : 14.0,
					"frgb" : 0.0,
					"id" : "obj-46",
					"maxclass" : "comment",
					"numinlets" : 1,
					"numoutlets" : 0,
					"patching_rect" : [ 344.0, 76.0, 99.0, 25.0 ],
					"text" : "OUTPUTS"
				}

			}
, 			{
				"box" : 				{
					"fontname" : "Futura Medium",
					"fontsize" : 14.0,
					"frgb" : 0.0,
					"id" : "obj-47",
					"maxclass" : "comment",
					"numinlets" : 1,
					"numoutlets" : 0,
					"patching_rect" : [ 344.0, 11.0, 99.0, 25.0 ],
					"text" : "INPUTS"
				}

			}
, 			{
				"box" : 				{
					"fontname" : "Futura Medium",
					"fontsize" : 18.0,
					"frgb" : 0.0,
					"id" : "obj-48",
					"maxclass" : "comment",
					"numinlets" : 1,
					"numoutlets" : 0,
					"patching_rect" : [ 10.0, 9.0, 313.0, 30.0 ],
					"text" : "MULTIPAN (4 CHANNEL) MODULE"
				}

			}
, 			{
				"box" : 				{
					"bgcolor" : [ 0.74902, 0.827451, 1.0, 1.0 ],
					"border" : 1,
					"id" : "obj-49",
					"maxclass" : "panel",
					"numinlets" : 1,
					"numoutlets" : 0,
					"patching_rect" : [ 5.0, 8.0, 325.0, 30.0 ],
					"rounded" : 0
				}

			}
, 			{
				"box" : 				{
					"bgcolor" : [ 1.0, 1.0, 0.862745, 1.0 ],
					"border" : 1,
					"id" : "obj-50",
					"maxclass" : "panel",
					"numinlets" : 1,
					"numoutlets" : 0,
					"patching_rect" : [ 4.0, 44.0, 326.0, 380.0 ],
					"rounded" : 0
				}

			}
, 			{
				"box" : 				{
					"bgcolor" : [ 0.815686, 1.0, 0.815686, 1.0 ],
					"border" : 1,
					"id" : "obj-51",
					"maxclass" : "panel",
					"numinlets" : 1,
					"numoutlets" : 0,
					"patching_rect" : [ 5.0, 430.0, 325.0, 51.0 ],
					"rounded" : 0
				}

			}
, 			{
				"box" : 				{
					"fontname" : "Arial",
					"fontsize" : 9.0,
					"frgb" : 0.0,
					"id" : "obj-52",
					"maxclass" : "comment",
					"numinlets" : 1,
					"numoutlets" : 0,
					"patching_rect" : [ 345.0, 136.0, 84.0, 17.0 ],
					"text" : "multiPan4OnOff"
				}

			}
, 			{
				"box" : 				{
					"bgcolor" : [ 1.0, 1.0, 0.862745, 1.0 ],
					"border" : 1,
					"id" : "obj-53",
					"maxclass" : "panel",
					"numinlets" : 1,
					"numoutlets" : 0,
					"patching_rect" : [ 340.0, 7.0, 335.0, 474.0 ],
					"rounded" : 0
				}

			}
 ],
		"lines" : [ 			{
				"patchline" : 				{
					"destination" : [ "obj-16", 0 ],
					"disabled" : 0,
					"hidden" : 1,
					"source" : [ "obj-14", 0 ]
				}

			}
, 			{
				"patchline" : 				{
					"destination" : [ "obj-16", 0 ],
					"disabled" : 0,
					"hidden" : 1,
					"source" : [ "obj-15", 0 ]
				}

			}
, 			{
				"patchline" : 				{
					"destination" : [ "obj-16", 0 ],
					"disabled" : 0,
					"hidden" : 1,
					"source" : [ "obj-17", 0 ]
				}

			}
, 			{
				"patchline" : 				{
					"destination" : [ "obj-5", 0 ],
					"disabled" : 0,
					"hidden" : 1,
					"midpoints" : [ 71.5, 410.0, 3.0, 410.0, 3.0, 125.0 ],
					"source" : [ "obj-3", 0 ]
				}

			}
, 			{
				"patchline" : 				{
					"destination" : [ "obj-3", 0 ],
					"disabled" : 0,
					"hidden" : 1,
					"midpoints" : [ 19.5, 421.0, 60.0, 421.0, 60.0, 395.0, 71.5, 395.0 ],
					"source" : [ "obj-4", 0 ]
				}

			}
 ],
		"dependency_cache" : [ 			{
				"name" : "panBackground2.pct",
				"bootpath" : "/Max/UBCToolbox/UBCToolbox_1.02/picts",
				"patcherrelativepath" : "../../../../picts",
				"type" : "PICT",
				"implicit" : 1
			}
, 			{
				"name" : "panKnob.pct",
				"bootpath" : "/Max/UBCToolbox/UBCToolbox_1.02/picts",
				"patcherrelativepath" : "../../../../picts",
				"type" : "PICT",
				"implicit" : 1
			}
 ]
	}

}
