{
	"patcher" : 	{
		"fileversion" : 1,
		"rect" : [ 684.0, 213.0, 331.0, 401.0 ],
		"bgcolor" : [ 0.8, 0.8, 1.0, 1.0 ],
		"bglocked" : 0,
		"defrect" : [ 684.0, 213.0, 331.0, 401.0 ],
		"openrect" : [ 0.0, 0.0, 0.0, 0.0 ],
		"openinpresentation" : 0,
		"default_fontsize" : 12.0,
		"default_fontface" : 0,
		"default_fontname" : "Arial",
		"gridonopen" : 0,
		"gridsize" : [ 15.0, 15.0 ],
		"gridsnaponopen" : 0,
		"toolbarvisible" : 1,
		"boxanimatetime" : 200,
		"imprint" : 0,
		"enablehscroll" : 1,
		"enablevscroll" : 1,
		"devicewidth" : 0.0,
		"boxes" : [ 			{
				"box" : 				{
					"maxclass" : "newobj",
					"text" : "- 360.",
					"numinlets" : 2,
					"fontsize" : 10.0,
					"numoutlets" : 1,
					"patching_rect" : [ 29.0, 272.0, 45.0, 18.0 ],
					"id" : "obj-20",
					"outlettype" : [ "float" ],
					"fontname" : "Arial"
				}

			}
, 			{
				"box" : 				{
					"maxclass" : "newobj",
					"text" : "split 180. 270.",
					"numinlets" : 3,
					"fontsize" : 10.0,
					"numoutlets" : 2,
					"patching_rect" : [ 29.0, 248.0, 73.0, 18.0 ],
					"id" : "obj-19",
					"outlettype" : [ "float", "float" ],
					"fontname" : "Arial"
				}

			}
, 			{
				"box" : 				{
					"maxclass" : "flonum",
					"numinlets" : 1,
					"fontsize" : 9.0,
					"bgcolor" : [ 0.866667, 0.866667, 0.866667, 1.0 ],
					"numoutlets" : 2,
					"patching_rect" : [ 29.0, 303.0, 35.0, 17.0 ],
					"id" : "obj-21",
					"triscale" : 0.9,
					"outlettype" : [ "float", "bang" ],
					"htextcolor" : [ 0.870588, 0.870588, 0.870588, 1.0 ],
					"fontname" : "Arial"
				}

			}
, 			{
				"box" : 				{
					"maxclass" : "flonum",
					"numinlets" : 1,
					"fontsize" : 9.0,
					"bgcolor" : [ 0.866667, 0.866667, 0.866667, 1.0 ],
					"numoutlets" : 2,
					"patching_rect" : [ 98.0, 289.0, 35.0, 17.0 ],
					"id" : "obj-6",
					"triscale" : 0.9,
					"outlettype" : [ "float", "bang" ],
					"htextcolor" : [ 0.870588, 0.870588, 0.870588, 1.0 ],
					"fontname" : "Arial"
				}

			}
, 			{
				"box" : 				{
					"maxclass" : "newobj",
					"text" : "bgcolor 0.8 0.8 1. 1.",
					"numinlets" : 4,
					"fontsize" : 10.0,
					"numoutlets" : 0,
					"patching_rect" : [ 20.0, 367.0, 99.0, 18.0 ],
					"id" : "obj-50",
					"hidden" : 1,
					"fontname" : "Arial"
				}

			}
, 			{
				"box" : 				{
					"maxclass" : "newobj",
					"text" : "+ 90.",
					"numinlets" : 2,
					"fontsize" : 9.0,
					"numoutlets" : 1,
					"patching_rect" : [ 29.0, 227.0, 39.0, 17.0 ],
					"id" : "obj-2",
					"outlettype" : [ "float" ],
					"fontname" : "Arial"
				}

			}
, 			{
				"box" : 				{
					"maxclass" : "inlet",
					"numinlets" : 0,
					"numoutlets" : 1,
					"patching_rect" : [ 169.0, 32.0, 15.0, 15.0 ],
					"id" : "obj-3",
					"outlettype" : [ "" ],
					"comment" : ""
				}

			}
, 			{
				"box" : 				{
					"maxclass" : "outlet",
					"numinlets" : 1,
					"numoutlets" : 0,
					"patching_rect" : [ 27.0, 325.0, 18.0, 18.0 ],
					"id" : "obj-4",
					"comment" : ""
				}

			}
, 			{
				"box" : 				{
					"maxclass" : "comment",
					"text" : "dist from edge",
					"numinlets" : 1,
					"fontsize" : 9.0,
					"numoutlets" : 0,
					"patching_rect" : [ 118.0, 323.0, 80.0, 17.0 ],
					"id" : "obj-5",
					"fontname" : "Arial"
				}

			}
, 			{
				"box" : 				{
					"maxclass" : "newobj",
					"text" : "- 50.",
					"numinlets" : 2,
					"fontsize" : 9.0,
					"numoutlets" : 1,
					"patching_rect" : [ 99.0, 201.0, 32.5, 17.0 ],
					"id" : "obj-7",
					"outlettype" : [ "float" ],
					"fontname" : "Arial"
				}

			}
, 			{
				"box" : 				{
					"maxclass" : "newobj",
					"text" : "* -2.",
					"numinlets" : 2,
					"fontsize" : 9.0,
					"numoutlets" : 1,
					"patching_rect" : [ 99.0, 222.0, 39.0, 17.0 ],
					"id" : "obj-8",
					"outlettype" : [ "float" ],
					"fontname" : "Arial"
				}

			}
, 			{
				"box" : 				{
					"maxclass" : "newobj",
					"text" : "minimum 50.",
					"numinlets" : 2,
					"fontsize" : 9.0,
					"numoutlets" : 2,
					"patching_rect" : [ 99.0, 180.0, 65.0, 17.0 ],
					"id" : "obj-9",
					"outlettype" : [ "float", "int" ],
					"fontname" : "Arial"
				}

			}
, 			{
				"box" : 				{
					"maxclass" : "newobj",
					"text" : "cartopol",
					"numinlets" : 2,
					"fontsize" : 9.0,
					"color" : [ 1.0, 0.890196, 0.090196, 1.0 ],
					"numoutlets" : 2,
					"patching_rect" : [ 99.0, 156.0, 50.0, 17.0 ],
					"id" : "obj-10",
					"outlettype" : [ "float", "float" ],
					"fontname" : "Arial"
				}

			}
, 			{
				"box" : 				{
					"maxclass" : "outlet",
					"numinlets" : 1,
					"numoutlets" : 0,
					"patching_rect" : [ 98.0, 323.0, 18.0, 18.0 ],
					"id" : "obj-11",
					"comment" : "spread"
				}

			}
, 			{
				"box" : 				{
					"maxclass" : "newobj",
					"text" : "p offset",
					"numinlets" : 1,
					"fontsize" : 9.0,
					"numoutlets" : 1,
					"patching_rect" : [ 99.0, 124.0, 44.0, 17.0 ],
					"id" : "obj-12",
					"outlettype" : [ "" ],
					"fontname" : "Arial",
					"patcher" : 					{
						"fileversion" : 1,
						"rect" : [ 548.0, 176.0, 400.0, 326.0 ],
						"bglocked" : 0,
						"defrect" : [ 548.0, 176.0, 400.0, 326.0 ],
						"openrect" : [ 0.0, 0.0, 0.0, 0.0 ],
						"openinpresentation" : 0,
						"default_fontsize" : 12.0,
						"default_fontface" : 0,
						"default_fontname" : "Arial",
						"gridonopen" : 0,
						"gridsize" : [ 15.0, 15.0 ],
						"gridsnaponopen" : 0,
						"toolbarvisible" : 1,
						"boxanimatetime" : 200,
						"imprint" : 0,
						"enablehscroll" : 1,
						"enablevscroll" : 1,
						"devicewidth" : 0.0,
						"boxes" : [ 							{
								"box" : 								{
									"maxclass" : "newobj",
									"text" : "* -1.",
									"numinlets" : 2,
									"fontsize" : 9.0,
									"numoutlets" : 1,
									"patching_rect" : [ 141.0, 132.0, 32.5, 17.0 ],
									"id" : "obj-1",
									"outlettype" : [ "float" ],
									"fontname" : "Arial"
								}

							}
, 							{
								"box" : 								{
									"maxclass" : "newobj",
									"text" : "- 50.",
									"numinlets" : 2,
									"fontsize" : 9.0,
									"numoutlets" : 1,
									"patching_rect" : [ 141.0, 109.0, 32.5, 17.0 ],
									"id" : "obj-2",
									"outlettype" : [ "float" ],
									"fontname" : "Arial"
								}

							}
, 							{
								"box" : 								{
									"maxclass" : "newobj",
									"text" : "- 50.",
									"numinlets" : 2,
									"fontsize" : 9.0,
									"numoutlets" : 1,
									"patching_rect" : [ 109.0, 109.0, 32.5, 17.0 ],
									"id" : "obj-3",
									"outlettype" : [ "float" ],
									"fontname" : "Arial"
								}

							}
, 							{
								"box" : 								{
									"maxclass" : "newobj",
									"text" : "pack 0. 0.",
									"numinlets" : 2,
									"fontsize" : 9.0,
									"numoutlets" : 1,
									"patching_rect" : [ 109.0, 163.0, 51.0, 17.0 ],
									"id" : "obj-4",
									"outlettype" : [ "" ],
									"fontname" : "Arial"
								}

							}
, 							{
								"box" : 								{
									"maxclass" : "newobj",
									"text" : "unpack 0. 0.",
									"numinlets" : 1,
									"fontsize" : 9.0,
									"numoutlets" : 2,
									"patching_rect" : [ 109.0, 84.0, 60.0, 17.0 ],
									"id" : "obj-5",
									"outlettype" : [ "float", "float" ],
									"fontname" : "Arial"
								}

							}
, 							{
								"box" : 								{
									"maxclass" : "outlet",
									"numinlets" : 1,
									"numoutlets" : 0,
									"patching_rect" : [ 109.0, 191.0, 15.0, 15.0 ],
									"id" : "obj-6",
									"comment" : ""
								}

							}
, 							{
								"box" : 								{
									"maxclass" : "inlet",
									"numinlets" : 0,
									"numoutlets" : 1,
									"patching_rect" : [ 109.0, 58.0, 15.0, 15.0 ],
									"id" : "obj-7",
									"outlettype" : [ "" ],
									"comment" : ""
								}

							}
 ],
						"lines" : [ 							{
								"patchline" : 								{
									"source" : [ "obj-7", 0 ],
									"destination" : [ "obj-5", 0 ],
									"hidden" : 0,
									"midpoints" : [  ]
								}

							}
, 							{
								"patchline" : 								{
									"source" : [ "obj-5", 0 ],
									"destination" : [ "obj-3", 0 ],
									"hidden" : 0,
									"midpoints" : [  ]
								}

							}
, 							{
								"patchline" : 								{
									"source" : [ "obj-5", 1 ],
									"destination" : [ "obj-2", 0 ],
									"hidden" : 0,
									"midpoints" : [  ]
								}

							}
, 							{
								"patchline" : 								{
									"source" : [ "obj-2", 0 ],
									"destination" : [ "obj-1", 0 ],
									"hidden" : 0,
									"midpoints" : [  ]
								}

							}
, 							{
								"patchline" : 								{
									"source" : [ "obj-1", 0 ],
									"destination" : [ "obj-4", 1 ],
									"hidden" : 0,
									"midpoints" : [  ]
								}

							}
, 							{
								"patchline" : 								{
									"source" : [ "obj-3", 0 ],
									"destination" : [ "obj-4", 0 ],
									"hidden" : 0,
									"midpoints" : [  ]
								}

							}
, 							{
								"patchline" : 								{
									"source" : [ "obj-4", 0 ],
									"destination" : [ "obj-6", 0 ],
									"hidden" : 0,
									"midpoints" : [  ]
								}

							}
 ]
					}
,
					"saved_object_attributes" : 					{
						"default_fontface" : 0,
						"fontface" : 0,
						"fontsize" : 12.0,
						"default_fontname" : "Arial",
						"default_fontsize" : 12.0,
						"fontname" : "Arial",
						"globalpatchername" : ""
					}

				}

			}
, 			{
				"box" : 				{
					"maxclass" : "newobj",
					"text" : "* 180.",
					"numinlets" : 2,
					"fontsize" : 9.0,
					"numoutlets" : 1,
					"patching_rect" : [ 29.0, 204.0, 40.0, 17.0 ],
					"id" : "obj-13",
					"outlettype" : [ "float" ],
					"fontname" : "Arial"
				}

			}
, 			{
				"box" : 				{
					"maxclass" : "newobj",
					"text" : "/ 3.141593",
					"numinlets" : 2,
					"fontsize" : 9.0,
					"numoutlets" : 1,
					"patching_rect" : [ 29.0, 181.0, 63.0, 17.0 ],
					"id" : "obj-14",
					"outlettype" : [ "float" ],
					"fontname" : "Arial"
				}

			}
, 			{
				"box" : 				{
					"maxclass" : "comment",
					"text" : "degrees",
					"numinlets" : 1,
					"fontsize" : 9.0,
					"numoutlets" : 0,
					"patching_rect" : [ 50.0, 328.0, 44.0, 17.0 ],
					"id" : "obj-15",
					"fontname" : "Arial"
				}

			}
, 			{
				"box" : 				{
					"maxclass" : "newobj",
					"text" : "pack 0. 0.",
					"numinlets" : 2,
					"fontsize" : 9.0,
					"numoutlets" : 1,
					"patching_rect" : [ 99.0, 73.0, 50.0, 17.0 ],
					"id" : "obj-16",
					"outlettype" : [ "" ],
					"fontname" : "Arial"
				}

			}
, 			{
				"box" : 				{
					"maxclass" : "inlet",
					"numinlets" : 0,
					"numoutlets" : 1,
					"patching_rect" : [ 82.0, 33.0, 15.0, 15.0 ],
					"id" : "obj-17",
					"outlettype" : [ "" ],
					"comment" : ""
				}

			}
, 			{
				"box" : 				{
					"maxclass" : "comment",
					"text" : "from graphic",
					"numinlets" : 1,
					"fontsize" : 9.0,
					"numoutlets" : 0,
					"patching_rect" : [ 101.0, 33.0, 65.0, 17.0 ],
					"id" : "obj-18",
					"fontname" : "Arial"
				}

			}
 ],
		"lines" : [ 			{
				"patchline" : 				{
					"source" : [ "obj-21", 0 ],
					"destination" : [ "obj-4", 0 ],
					"hidden" : 0,
					"midpoints" : [  ]
				}

			}
, 			{
				"patchline" : 				{
					"source" : [ "obj-2", 0 ],
					"destination" : [ "obj-19", 0 ],
					"hidden" : 0,
					"midpoints" : [  ]
				}

			}
, 			{
				"patchline" : 				{
					"source" : [ "obj-20", 0 ],
					"destination" : [ "obj-21", 0 ],
					"hidden" : 0,
					"midpoints" : [  ]
				}

			}
, 			{
				"patchline" : 				{
					"source" : [ "obj-19", 0 ],
					"destination" : [ "obj-20", 0 ],
					"hidden" : 0,
					"midpoints" : [  ]
				}

			}
, 			{
				"patchline" : 				{
					"source" : [ "obj-19", 1 ],
					"destination" : [ "obj-21", 0 ],
					"hidden" : 0,
					"midpoints" : [ 92.5, 293.0, 38.5, 293.0 ]
				}

			}
, 			{
				"patchline" : 				{
					"source" : [ "obj-7", 0 ],
					"destination" : [ "obj-8", 0 ],
					"hidden" : 0,
					"midpoints" : [  ]
				}

			}
, 			{
				"patchline" : 				{
					"source" : [ "obj-9", 0 ],
					"destination" : [ "obj-7", 0 ],
					"hidden" : 0,
					"midpoints" : [  ]
				}

			}
, 			{
				"patchline" : 				{
					"source" : [ "obj-10", 1 ],
					"destination" : [ "obj-14", 0 ],
					"hidden" : 0,
					"midpoints" : [ 139.5, 176.0, 38.5, 176.0 ]
				}

			}
, 			{
				"patchline" : 				{
					"source" : [ "obj-14", 0 ],
					"destination" : [ "obj-13", 0 ],
					"hidden" : 0,
					"midpoints" : [  ]
				}

			}
, 			{
				"patchline" : 				{
					"source" : [ "obj-13", 0 ],
					"destination" : [ "obj-2", 0 ],
					"hidden" : 0,
					"midpoints" : [  ]
				}

			}
, 			{
				"patchline" : 				{
					"source" : [ "obj-12", 0 ],
					"destination" : [ "obj-10", 0 ],
					"hidden" : 0,
					"midpoints" : [  ]
				}

			}
, 			{
				"patchline" : 				{
					"source" : [ "obj-10", 0 ],
					"destination" : [ "obj-9", 0 ],
					"hidden" : 0,
					"midpoints" : [  ]
				}

			}
, 			{
				"patchline" : 				{
					"source" : [ "obj-3", 0 ],
					"destination" : [ "obj-16", 1 ],
					"hidden" : 0,
					"midpoints" : [ 178.0, 68.0, 139.5, 68.0 ]
				}

			}
, 			{
				"patchline" : 				{
					"source" : [ "obj-16", 0 ],
					"destination" : [ "obj-12", 0 ],
					"hidden" : 0,
					"midpoints" : [  ]
				}

			}
, 			{
				"patchline" : 				{
					"source" : [ "obj-17", 0 ],
					"destination" : [ "obj-16", 0 ],
					"hidden" : 0,
					"midpoints" : [ 91.0, 69.0, 108.5, 69.0 ]
				}

			}
, 			{
				"patchline" : 				{
					"source" : [ "obj-8", 0 ],
					"destination" : [ "obj-6", 0 ],
					"hidden" : 0,
					"midpoints" : [  ]
				}

			}
, 			{
				"patchline" : 				{
					"source" : [ "obj-6", 0 ],
					"destination" : [ "obj-11", 0 ],
					"hidden" : 0,
					"midpoints" : [  ]
				}

			}
 ]
	}

}
